<?xml version="1.0" encoding="UTF-8"?>
<svg id="_レイヤー_2" data-name="レイヤー_2" xmlns="http://www.w3.org/2000/svg" viewBox="0 0 745.9 300">
  <defs>
    <style>
      .cls-1 {
        fill: #575554;
      }

      .cls-2 {
        fill: #3896d3;
      }

      .cls-3 {
        fill: #eb6160;
      }

      .cls-4 {
        fill: #676e73;
      }
    </style>
  </defs>
  <g id="_レイヤー_1-2" data-name="レイヤー_1">
    <rect class="cls-1" x="121.62" y="0" width="502.65" height="300"/>
    <path class="cls-3" d="M50.68,0h70.94v300H50.68c-27.97,0-50.68-22.71-50.68-50.68V50.68C0,22.71,22.71,0,50.68,0Z"/>
    <path class="cls-2" d="M674.96,0h70.94v300h-70.94c-27.97,0-50.68-22.71-50.68-50.68V50.68C624.28,22.71,646.99,0,674.96,0Z" transform="translate(1370.18 300) rotate(-180)"/>
    <rect class="cls-4" x="139.05" y="10.4" width="467.81" height="279.2"/>
    <circle class="cls-1" cx="60.81" cy="82.7" r="21.64"/>
    <circle class="cls-1" cx="685.09" cy="206.32" r="21.64"/>
    <polygon class="cls-1" points="89.16 197.52 69.61 197.52 69.61 177.97 52.01 177.97 52.01 197.52 32.46 197.52 32.46 215.12 52.01 215.12 52.01 234.67 69.61 234.67 69.61 215.12 89.16 215.12 89.16 197.52"/>
    <polygon class="cls-1" points="713.44 73.9 693.89 73.9 693.89 54.35 676.29 54.35 676.29 73.9 656.74 73.9 656.74 91.5 676.29 91.5 676.29 111.05 693.89 111.05 693.89 91.5 713.44 91.5 713.44 73.9"/>
  </g>
</svg>